<svg xmlns="http://www.w3.org/2000/svg" viewBox="0 0 61 55" width="61" height="55">
	<style>
		tspan { white-space:pre }
		.shp0 { fill: #ffffff } 
	</style>
	<path fill-rule="evenodd" class="shp0" d="M52.74 7.36C57.38 11.37 60.08 17.11 60.06 23.37C60.08 29.74 57.01 35.31 52.25 39.05C47.49 42.8 41.09 44.88 34.06 44.88C26.05 44.88 18.63 41.98 18.63 41.98L18.63 51.33C20 51.73 22.25 52.58 20.82 54L9.98 54C8.57 52.59 10.65 51.77 12.22 51.33L12.22 11.73C8.57 14.51 6.71 16.92 5.75 18.71C6.86 22.21 4.77 22.04 4.77 22.04L1 16.09C1 16.09 14.38 1.01 34.06 1.01C41.61 1.01 48.1 3.33 52.74 7.36L52.74 7.36ZM47 35.92C50.29 32.66 52.14 28.42 52.16 23.26C52.15 17.97 50.42 13.42 47.25 10C44.07 6.59 39.38 4.35 33.4 4.34C28.48 4.33 22.38 5.97 18.62 8.62L18.62 38.33C22.05 40 27.24 41.19 33.4 41.19C38.92 41.19 43.71 39.15 47 35.92L47 35.92Z" />
</svg>