<svg xmlns="http://www.w3.org/2000/svg" viewBox="0 0 175 183" width="120" height="125">
	<style>
		tspan { white-space:pre }
		.shp0 { fill: none;stroke: #ffffff;stroke-width: 8.5 } 
	</style>
	<g >
		<path class="shp0" d="M116 136C109.36 136 104 130.64 104 124C104 117.36 109.36 112 116 112C122.64 112 128 117.36 128 124C128 130.64 122.64 136 116 136ZM158 29C151.36 29 146 23.64 146 17C146 10.36 151.36 5 158 5C164.64 5 170 10.36 170 17C170 23.64 164.64 29 158 29ZM101.5 123.71L73.32 123.65C73.32 123.65 58.62 124.46 58.62 107.94C58.62 91.42 58.62 82.62 58.62 82.62C58.62 82.62 57.5 71.36 76.12 71.36C94.75 71.36 148.17 71.31 148.17 71.31C148.17 71.31 166 69.34 166 88.98C166 108.62 166 159.52 166 159.65C166.13 176.36 147.84 177.97 147.75 177.97C128.99 177.97 22.75 177.97 22.75 177.97C22.75 177.97 4.64 180.68 4.64 159.86C4.64 139.04 4.64 32.96 4.64 32.96C4.64 32.96 3.19 17.87 19.72 17.87C36.26 17.87 143.88 17.73 143.88 17.73" />
	</g>
</svg>